_____________________________________________________________________________ 
       ooooooo        ooooooo       ooo       ooooooo      ooooo      ooo
    ooo       ooo  ooo       ooo    ooo    ooo       ooo   oooooo     ooo 
    ooo       ooo  ooo      ooo     ooo    ooo       ooo   ooo ooo    ooo 
    ooo       ooo  ooo     ooo      ooo    ooo       ooo   ooo  ooo   ooo 
    ooo       ooo  oooooooooo       ooo    ooo       ooo   ooo   ooo  ooo
    ooo       ooo  ooo     ooo      ooo    ooo       ooo   ooo    ooo ooo
    ooo       ooo  ooo      ooo     ooo    ooo       ooo   ooo     oooooo
       ooooooo     ooo       ooo    ooo       ooooooo      ooo      ooooo
          
                                                 
                        ooooooo ooooooo         ooooooo       
                      ooo     ooo     ooo     ooo
                      ooo     ooo     ooo     ooo
                      ooo     ooo     ooo     ooooooooo
                      ooo     ooo     ooo     ooooooooo
                      ooo     ooo     ooo     ooo
                      ooo     ooo     ooo     ooo
                      ooo     ooo     ooo       ooooooo
______________________________________________________________________________

KEEP LOOKING FORWARD TO FUTURE RELEASES.......Please seed as long as you can!!

General
Complete name                    :Selena Gomez David Letterman March 18,2013 720p HD[Orion_Me].mp4
Format                           : MPEG-4
Format profile                   : Base Media
Codec ID                         : isom
File size                        : 366 MiB
Duration                         : 9mn 30s
Overall bit rate                 : 5 387 Kbps
Writing application              : Lavf52.94.0

Video
ID                               : 1
Format                           : AVC
Format/Info                      : Advanced Video Codec
Format profile                   : High@L3.1
Format settings, CABAC           : Yes
Format settings, ReFrames        : 2 frames
Codec ID                         : avc1
Codec ID/Info                    : Advanced Video Coding
Duration                         : 9mn 30s
Bit rate mode                    : Variable
Bit rate                         : 5 005 Kbps
Width                            : 1 280 pixels
Height                           : 720 pixels
Display aspect ratio             : 16:9
Frame rate mode                  : Variable
Frame rate                       : 25.000 fps
Minimum frame rate               : 6.250 fps
Maximum frame rate               : 25.000 fps
Color space                      : YUV
Chroma subsampling               : 4:2:0
Bit depth                        : 8 bits
Scan type                        : Progressive
Bits/(Pixel*Frame)               : 0.217
Stream size                      : 340 MiB (93%)
Writing library                  : x264 core 112 r1834 a51816a

Audio
ID                               : 2
Format                           : AAC
Format/Info                      : Advanced Audio Codec
Format version                   : Version 4
Format profile                   : LC
Format settings, SBR             : No
Codec ID                         : 40
Duration                         : 9mn 30s
Bit rate mode                    : Variable
Bit rate                         : 384 Kbps
Channel(s)                       : 6 channels
Channel positions                : Front: L C R, Side: L R, LFE
Sampling rate                    : 48.0 KHz
Stream size                      : 26.0 MiB (7%)

 


           --The Most Important Things In Life Aren't Free--
